<mxfile host="app.diagrams.net" modified="2023-08-05T11:15:02.416Z" agent="Mozilla/5.0 (Windows NT 10.0; Win64; x64) AppleWebKit/537.36 (KHTML, like Gecko) Chrome/115.0.0.0 Safari/537.36 Edg/115.0.1901.188" version="21.6.6" etag="rWlhy_ofN6nWIUqRZVWz" type="github">
  <diagram name="페이지-1" id="-wmfMx4bnkZEz9of4ctO">
    <mxGraphModel>
      <root>
        <mxCell id="0" />
        <mxCell id="1" parent="0" />
      </root>
    </mxGraphModel>
  </diagram>
</mxfile>
